<svg width="208" height="190" viewBox="0 0 208 190" fill="none" xmlns="http://www.w3.org/2000/svg">
<g clip-path="url(#clip0_202244_545)">
<path d="M0.418203 155.826C2.23396 154.933 3.0048 152.564 4.97473 151.946C6.99604 151.31 9.24004 152.564 11.0901 151.19C11.8952 150.589 12.4947 149.594 13.4711 149.233C14.3276 148.924 15.2183 149.267 16.0406 149.525C16.7429 149.748 17.4452 149.954 18.1475 150.177C20.9739 151.053 23.7832 151.911 26.6096 152.787C29.8129 153.766 32.9991 154.761 36.2023 155.74C36.5107 155.843 36.6477 155.345 36.3394 155.242C30.481 153.439 24.6397 151.637 18.7813 149.834C17.4109 149.422 15.9892 148.787 14.5674 148.615C13.5739 148.495 12.7859 148.89 12.0836 149.542C11.1072 150.452 10.3706 151.293 8.94884 151.362C7.76688 151.431 6.60205 151.122 5.4201 151.31C2.98767 151.688 2.23396 154.349 0.178385 155.362C-0.129951 155.534 0.126997 155.98 0.418203 155.826Z" fill="#E8E8E8"/>
<path d="M31.2004 153.662C32.4167 153.972 33.3759 152.753 34.4722 152.392C35.9454 151.894 37.5213 152.1 38.8575 152.873C39.1487 153.044 39.4056 152.598 39.1144 152.426C37.9838 151.757 36.6991 151.482 35.3972 151.654C34.832 151.722 34.3009 151.877 33.787 152.1C33.0505 152.426 32.194 153.371 31.3375 153.165C31.012 153.079 30.875 153.577 31.2004 153.662Z" fill="#E8E8E8"/>
<path d="M44.4075 152.375C43.2598 151.431 42.1635 150.418 41.1357 149.336C40.6561 148.838 40.1936 148.306 39.7482 147.774C39.4913 147.465 39.2343 147.156 38.9945 146.847C38.8232 146.624 38.6519 146.4 38.4977 146.177C38.2236 145.903 38.2236 145.559 38.5149 145.181C38.7204 145.267 39.0459 145.061 38.8746 144.821C37.8297 143.413 37.0588 141.868 36.5621 140.186C36.4593 140.289 36.3565 140.392 36.2537 140.495C36.819 140.649 37.2301 140.941 37.5385 141.422C37.7097 141.696 38.1551 141.456 37.9838 141.164C35.4315 136.735 33.3417 132.065 31.7657 127.206C31.6287 127.292 31.4745 127.378 31.3375 127.464C38.5149 134.537 41.7695 144.375 47.8163 152.289C48.0219 152.547 48.4673 152.289 48.2617 152.032C42.1978 144.083 38.9088 134.211 31.6972 127.103C31.5259 126.932 31.1833 127.103 31.269 127.361C32.862 132.271 34.9519 136.975 37.5385 141.439C37.6926 141.353 37.8297 141.267 37.9838 141.181C37.5898 140.58 37.076 140.186 36.3908 140.014C36.2023 139.962 36.0139 140.134 36.0824 140.323C36.5963 142.04 37.3843 143.636 38.4463 145.078C38.5662 144.958 38.6862 144.838 38.8061 144.718C38.3264 144.495 37.7954 144.718 37.6755 145.284C37.5213 146.091 38.4977 146.984 38.9431 147.551C40.4676 149.456 42.1978 151.19 44.082 152.735C44.3047 152.941 44.6644 152.581 44.4075 152.375Z" fill="#E8E8E8"/>
<path d="M42.6088 141.645C39.457 136.924 36.9046 131.859 35.0204 126.502C34.969 126.605 34.9004 126.708 34.8491 126.812C35.4315 126.674 35.9282 126.897 36.2537 127.412C36.425 127.704 36.8361 127.447 36.6991 127.155C34.044 121.404 31.3374 115.412 31.5259 108.939C31.3717 108.991 31.2004 109.025 31.0462 109.077C35.6199 118.519 39.9709 128.082 44.082 137.73C44.2019 138.005 44.6473 137.799 44.5445 137.524C43.8593 135.464 43.1913 133.387 42.5061 131.327C42.1806 130.314 41.838 129.318 41.5125 128.305C41.2899 127.636 40.8102 126.176 41.7695 125.816C41.6667 125.781 41.5811 125.73 41.4783 125.696C42.7116 128.116 43.9278 130.537 45.1612 132.958C45.3154 133.25 45.7607 132.992 45.6066 132.7C44.2704 130.073 43.6538 127.172 43.7737 124.219C43.6024 124.236 43.4311 124.271 43.2769 124.288C46.8399 133.164 50.9682 141.816 55.6104 150.177C55.7645 150.469 56.2099 150.212 56.0557 149.92C51.4307 141.593 47.3195 132.992 43.7737 124.15C43.6709 123.893 43.2769 123.91 43.2769 124.219C43.157 127.258 43.8079 130.228 45.1783 132.958C45.3325 132.872 45.4695 132.786 45.6237 132.7C44.3903 130.279 43.1741 127.859 41.9408 125.438C41.8894 125.352 41.7524 125.284 41.6496 125.318C39.9366 125.953 41.0329 128.408 41.4098 129.558C42.3005 132.254 43.1741 134.966 44.0649 137.662C44.2191 137.593 44.3732 137.524 44.5274 137.456C40.4162 127.807 36.0653 118.245 31.4916 108.802C31.3717 108.562 31.012 108.699 31.012 108.939C30.8064 115.498 33.5643 121.592 36.2537 127.412C36.4079 127.327 36.5449 127.241 36.6991 127.155C36.2537 126.451 35.5342 126.142 34.712 126.314C34.575 126.348 34.4893 126.502 34.5407 126.623C36.4421 132.013 39.0116 137.13 42.1806 141.885C42.3519 142.177 42.7973 141.919 42.6088 141.645Z" fill="#E8E8E8"/>
<path d="M8.76037 174.831C14.6873 171.964 20.9397 169.045 27.7059 169.732C30.9092 170.058 34.0097 170.985 37.1958 171.397C38.806 171.603 40.4334 171.689 42.0436 171.5C43.551 171.311 44.9727 170.762 46.4459 170.436C48.3473 170.007 50.0774 170.453 51.9103 170.968C53.4177 171.38 54.908 171.723 56.4668 171.363C56.7923 171.294 56.6553 170.796 56.3298 170.865C53.2122 171.603 50.283 169.354 47.1311 169.801C45.5723 170.024 44.1163 170.642 42.5746 170.917C40.9472 171.191 39.2857 171.157 37.6412 170.951C34.4037 170.573 31.2518 169.612 27.9971 169.251C24.7939 168.891 21.6248 169.303 18.5586 170.196C15.0641 171.226 11.7581 172.805 8.50342 174.385C8.19509 174.522 8.46917 174.968 8.76037 174.831Z" fill="#E8E8E8"/>
<path d="M43.5339 189.063C45.5381 188.205 47.508 187.261 49.4094 186.196C50.4029 185.63 51.3793 185.046 52.3557 184.428C53.2293 183.861 54.1029 183.054 55.0622 182.642C56.1414 182.196 57.7687 183.037 58.8479 183.363C59.9956 183.724 61.1433 184.067 62.2739 184.428C64.6206 185.149 66.9674 185.87 69.2971 186.591C69.6054 186.694 69.7424 186.196 69.4341 186.093C66.9332 185.321 64.4151 184.548 61.9141 183.775C60.715 183.398 59.516 183.037 58.3169 182.66C57.3919 182.368 56.227 181.767 55.2506 182.007C54.3428 182.23 53.5205 183.02 52.7497 183.535C51.7562 184.187 50.7284 184.823 49.7006 185.424C47.6279 186.608 45.4867 187.673 43.2769 188.6C42.9686 188.737 43.2427 189.183 43.5339 189.063Z" fill="#E8E8E8"/>
<path d="M64.8433 189.596C66.1452 188.943 67.4471 188.274 68.7489 187.621C69.948 187.003 71.2327 186.179 72.6031 186.059C73.9906 185.922 75.0698 186.832 76.2689 187.364C77.2796 187.81 78.3759 188.068 79.4722 188.136C82.0416 188.274 84.4398 186.986 86.9921 187.123C89.0306 187.244 91.0862 188.926 93.0903 187.862C93.3815 187.707 93.1246 187.261 92.8334 187.415C91.5829 188.085 90.2297 187.432 88.9963 187.038C87.9343 186.694 86.9065 186.54 85.7931 186.66C83.1551 186.935 80.7398 188.05 78.0333 187.415C75.7893 186.9 74.0763 185.029 71.661 185.733C70.5475 186.059 69.5026 186.677 68.4748 187.192C67.173 187.844 65.8711 188.514 64.5692 189.166C64.2952 189.304 64.5521 189.75 64.8433 189.596Z" fill="#E8E8E8"/>
<path d="M74.8471 185.87C73.7851 184.943 72.8258 183.913 72.0379 182.728C71.6781 182.196 71.3527 181.629 71.0443 181.063C70.8902 180.771 70.7531 180.479 70.6332 180.187C70.5304 179.947 70.4276 179.724 70.342 179.483C70.1878 179.226 70.2564 178.986 70.5476 178.762C70.7017 178.694 70.8559 178.625 71.0101 178.556C69.1258 175.775 67.9438 172.616 67.5498 169.286C67.3957 169.354 67.2586 169.406 67.1045 169.474C67.4128 169.869 67.7211 170.264 68.0466 170.676C68.235 170.916 68.5948 170.607 68.4577 170.367C65.4771 165.028 63.8841 159.019 63.8498 152.907C63.6956 152.976 63.5586 153.027 63.4044 153.096C64.5693 154.04 65.46 155.208 66.0082 156.598C66.1623 156.53 66.3165 156.461 66.4707 156.392C65.1345 153.559 64.8605 150.366 65.6484 147.345C65.4771 147.345 65.323 147.345 65.1517 147.345C68.6633 157.422 72.1578 167.483 75.6694 177.561C75.7722 177.87 76.2689 177.732 76.1661 177.423C74.4018 172.256 73.5281 166.83 73.5795 161.354C73.4254 161.422 73.2883 161.474 73.1342 161.543C74.1791 162.487 74.83 163.672 75.0698 165.062C75.1212 165.354 75.5837 165.285 75.5666 164.993C75.5152 163.946 75.4467 162.882 75.3953 161.835C75.2583 161.903 75.1383 161.989 75.0013 162.058C75.9092 162.641 76.0805 164.187 76.3717 165.148C76.68 166.178 76.9884 167.208 77.3138 168.255C77.9476 170.384 78.5986 172.496 79.2324 174.625C80.5171 178.865 81.8018 183.123 83.0866 187.364C83.1894 187.673 83.6861 187.552 83.5833 187.226C82.1958 182.659 80.8254 178.076 79.4379 173.509C78.7699 171.277 78.0847 169.045 77.4166 166.813C77.074 165.663 76.7314 164.53 76.3888 163.38C76.1661 162.676 75.9092 162.041 75.2754 161.629C75.1212 161.526 74.8814 161.663 74.8814 161.852C74.9328 162.899 75.0013 163.963 75.0527 165.011C75.224 164.993 75.3953 164.959 75.5495 164.942C75.3096 163.466 74.5902 162.178 73.4767 161.182C73.3055 161.028 73.0485 161.131 73.0314 161.371C72.98 166.882 73.8536 172.359 75.6351 177.578C75.8064 177.526 75.9606 177.492 76.1319 177.44C72.6203 167.363 69.1258 157.302 65.6142 147.224C65.5285 147.001 65.1859 146.967 65.1174 147.224C64.2952 150.401 64.6035 153.714 65.991 156.667C66.1109 156.924 66.5734 156.736 66.4535 156.461C65.8711 154.984 64.9632 153.731 63.7128 152.735C63.5415 152.598 63.2674 152.684 63.2674 152.924C63.3017 159.122 64.9119 165.234 67.9438 170.642C68.0809 170.539 68.2179 170.436 68.3549 170.333C68.0466 169.938 67.7383 169.543 67.4128 169.131C67.2758 168.959 66.9503 169.097 66.9674 169.32C67.3614 172.753 68.5605 175.998 70.4962 178.848C70.6675 179.089 71.0101 178.934 70.9587 178.642C70.873 178.161 70.3077 177.99 69.9138 178.282C69.1943 178.797 69.8966 180.016 70.1536 180.599C71.13 182.78 72.586 184.685 74.3846 186.248C74.7444 186.436 75.1041 186.076 74.8471 185.87Z" fill="#E8E8E8"/>
<path d="M56.9293 147.362C56.7066 144.134 62.5479 145.988 64.1752 146.297C66.8475 146.795 69.5026 147.293 72.1748 147.791C77.5022 148.787 82.8467 149.783 88.1741 150.778C88.4995 150.847 88.6366 150.349 88.3111 150.28C82.1958 149.13 76.0976 147.997 69.9822 146.847C66.9845 146.28 63.9868 145.714 60.9891 145.164C59.9099 144.958 58.6594 144.735 57.6488 145.302C56.8779 145.714 56.364 146.469 56.4326 147.362C56.4326 147.688 56.9636 147.688 56.9293 147.362Z" fill="#E8E8E8"/>
<path d="M84.6283 150.212C86.4098 150.401 87.5061 148.701 88.8936 147.877C90.0755 147.19 91.1033 147.722 92.3195 147.963C93.6728 148.237 95.0603 148.272 96.4307 148.1C96.7561 148.066 96.7561 147.551 96.4307 147.585C94.889 147.774 93.3473 147.705 91.8399 147.328C90.932 147.087 90.1098 146.795 89.2019 147.156C87.5917 147.774 86.4954 149.903 84.6283 149.697C84.3028 149.662 84.3028 150.177 84.6283 150.212Z" fill="#E8E8E8"/>
<path d="M117.295 183.226C121.406 181.784 125.551 180.342 129.8 179.312C134.236 178.247 138.707 177.818 143.264 177.955C147.769 178.093 152.24 178.608 156.728 179.02C161.233 179.449 165.738 179.861 170.243 180.29C175.416 180.771 180.606 181.252 185.78 181.75C186.105 181.784 186.105 181.269 185.78 181.235C176.547 180.376 167.314 179.518 158.064 178.642C149.173 177.818 140.232 176.599 131.375 178.436C126.511 179.449 121.817 181.097 117.141 182.728C116.849 182.831 116.986 183.329 117.295 183.226Z" fill="#E8E8E8"/>
<path d="M135.401 166.333C138.467 165.68 141.345 164.393 144.24 163.225C147.34 161.989 150.475 161.131 153.798 160.839C157.156 160.547 160.53 160.719 163.871 160.925C167.228 161.131 170.585 161.371 173.96 161.611C177.883 161.903 181.823 162.229 185.745 162.573C186.071 162.607 186.071 162.092 185.745 162.058C178.791 161.44 171.836 160.907 164.864 160.461C158.235 160.032 151.708 159.86 145.388 162.212C142.03 163.466 138.775 165.062 135.247 165.818C134.956 165.903 135.075 166.401 135.401 166.333Z" fill="#E8E8E8"/>
<path d="M174.885 146.538C177.335 144.666 179.921 142.829 182.662 141.422C183.998 140.735 185.437 140.185 186.944 140.065C188.572 139.928 190.199 140.254 191.792 140.46C195.03 140.855 198.284 141.095 201.539 141.301C203.697 141.439 206.438 141.748 207.963 139.859C208.168 139.602 207.809 139.241 207.603 139.499C205.873 141.645 202.224 140.838 199.86 140.683C196.606 140.46 193.385 140.151 190.148 139.739C188.76 139.567 187.39 139.43 186.002 139.688C184.632 139.928 183.347 140.477 182.131 141.13C179.493 142.537 176.992 144.289 174.611 146.108C174.371 146.297 174.628 146.744 174.885 146.538Z" fill="#E8E8E8"/>
<path d="M80.5856 143.705C83.018 141.868 85.4676 140.048 87.9 138.211C90.2297 136.46 92.4052 134.623 95.4543 134.468C98.3321 134.331 101.278 134.657 104.139 134.898C107.222 135.155 110.289 135.499 113.338 135.928C115.907 136.288 118.973 137.25 121.406 135.911C121.697 135.756 121.44 135.31 121.149 135.464C119.899 136.151 118.511 136.151 117.123 135.979C115.633 135.79 114.143 135.533 112.653 135.327C109.775 134.932 106.88 134.606 103.968 134.365C101.107 134.125 98.1437 133.782 95.283 133.953C92.6279 134.108 90.6579 135.481 88.5852 137.044C85.8273 139.104 83.0866 141.181 80.3287 143.241C80.0717 143.465 80.3287 143.911 80.5856 143.705Z" fill="#E8E8E8"/>
<path d="M176.958 161.852C177.112 160.719 177.335 159.62 177.66 158.521C177.814 158.006 177.968 157.491 178.174 156.976C178.294 156.667 178.619 156.152 179.065 156.272C179.287 156.341 179.39 157.113 179.407 157.268C179.442 157.543 179.819 157.628 179.904 157.337C180.709 154.71 181.634 151.826 184.101 150.298C183.964 150.229 183.844 150.143 183.707 150.074C183.707 150.504 183.69 150.95 183.69 151.379C183.69 151.62 184.05 151.74 184.169 151.517C185.694 148.34 187.356 145.01 190.439 143.087C190.319 142.984 190.182 142.898 190.062 142.795C188.52 146.795 186.722 150.693 184.683 154.469C184.546 154.71 184.889 155.019 185.094 154.779C186.242 153.405 187.407 152.032 188.914 151.036C188.795 150.916 188.675 150.796 188.555 150.675C186.653 154.693 184.581 158.607 182.302 162.418C182.131 162.71 182.576 162.968 182.748 162.676C185.009 158.865 187.099 154.95 189 150.933C189.103 150.727 188.88 150.418 188.64 150.572C187.099 151.602 185.9 152.993 184.718 154.401C184.855 154.504 184.992 154.607 185.129 154.71C187.184 150.899 189 146.967 190.559 142.915C190.645 142.709 190.353 142.52 190.182 142.623C187.013 144.598 185.3 147.98 183.724 151.242C183.878 151.293 184.05 151.328 184.204 151.379C184.204 150.95 184.221 150.504 184.221 150.074C184.221 149.886 183.998 149.748 183.827 149.851C181.257 151.448 180.247 154.435 179.407 157.199C179.579 157.216 179.75 157.251 179.904 157.268C179.819 156.392 179.031 154.899 178.071 156.015C177.592 156.581 177.403 157.508 177.198 158.212C176.855 159.345 176.615 160.513 176.444 161.697C176.427 162.041 176.906 162.178 176.958 161.852Z" fill="#E8E8E8"/>
<path d="M57.272 132.872C58.6081 132.151 59.9614 131.43 61.4345 131.035C62.9933 130.623 64.535 130.76 66.0938 130.966C69.1943 131.378 72.2948 131.79 75.3782 132.202C75.7036 132.254 75.7036 131.739 75.3782 131.687C72.0721 131.241 68.749 130.76 65.4429 130.365C63.9184 130.176 62.4623 130.176 60.9892 130.606C59.5845 131.018 58.2827 131.722 56.9979 132.408C56.7067 132.597 56.9808 133.026 57.272 132.872Z" fill="#E8E8E8"/>
<path d="M161.472 16.4204C162.706 15.3732 164.436 15.5792 165.789 16.2487C166.817 16.7466 167.656 17.7595 168.855 17.8111C169.969 17.8454 170.894 17.09 171.836 16.5921C172.47 16.2659 173.121 16.0427 173.84 16.1972C174.611 16.3518 175.279 16.7981 175.981 17.1072C178.294 18.1201 179.836 16.7123 181.788 15.5964C182.337 15.2873 182.919 15.0126 183.553 14.9611C184.358 14.8925 185.077 15.253 185.797 15.562C186.927 16.0427 187.784 16.2316 188.932 15.768C190.113 15.3045 191.073 15.3732 192.255 15.8024C193.008 16.0771 193.728 16.4204 194.516 16.5921C195.698 16.8668 196.965 16.7981 197.856 15.8882C198.096 15.6479 197.719 15.2873 197.496 15.5277C196.349 16.6951 194.602 16.1457 193.283 15.6307C191.946 15.1157 190.576 14.5663 189.154 15.0985C188.263 15.4418 187.664 15.6822 186.705 15.356C186.054 15.1328 185.454 14.7723 184.786 14.5834C183.775 14.2744 182.833 14.4461 181.908 14.9096C180.846 15.4418 179.921 16.2831 178.808 16.7295C177.335 17.3132 176.187 16.5406 174.851 15.9741C173.874 15.562 172.949 15.4933 171.973 15.9226C170.791 16.4548 169.643 17.6222 168.256 17.1243C167.519 16.8668 166.937 16.2659 166.269 15.8882C165.704 15.5792 165.087 15.356 164.453 15.2358C163.237 15.0126 162.055 15.2187 161.096 16.0256C160.856 16.2831 161.233 16.6436 161.472 16.4204Z" fill="#E8E8E8"/>
<path d="M167.639 28.1461C167.965 28.1461 167.965 27.6311 167.639 27.6311C167.314 27.6311 167.314 28.1461 167.639 28.1461Z" fill="#E8E8E8"/>
<path d="M171.065 30.0176C171.87 28.5583 173.772 29.2622 174.954 29.7429C176.136 30.2236 177.198 30.5155 178.448 30.0862C179.476 29.7257 180.401 29.039 181.463 28.7986C182.936 28.4553 183.775 29.7086 185.112 30.0004C187.201 30.4639 189.308 28.1291 191.278 29.1077C191.826 29.3824 192.203 29.7429 192.854 29.6914C193.454 29.657 194.002 29.3652 194.584 29.2278C196.212 28.8501 197.907 29.142 199.364 29.9489C199.655 30.1034 199.912 29.657 199.62 29.5025C198.695 28.9875 197.702 28.6785 196.657 28.5755C196.126 28.524 195.578 28.5411 195.047 28.627C194.413 28.7128 193.831 28.9875 193.214 29.1077C192.375 29.2622 192.015 28.8501 191.33 28.5583C190.987 28.4209 190.61 28.3523 190.25 28.3694C189.394 28.4038 188.572 28.7643 187.784 29.0562C186.773 29.4339 185.694 29.7944 184.666 29.2793C183.793 28.8501 183.107 28.1978 182.08 28.1978C179.955 28.2149 178.465 30.2579 176.221 29.6399C174.56 29.1763 171.887 27.5454 170.654 29.7429C170.466 30.0519 170.911 30.3094 171.065 30.0176Z" fill="#E8E8E8"/>
<path d="M154.449 50.5678C155.666 49.6064 157.053 49.6579 158.389 50.276C159.126 50.6193 159.914 50.9455 160.685 50.482C161.13 50.2073 161.421 49.7781 161.952 49.6236C162.517 49.4519 163.117 49.5721 163.665 49.7094C164.642 49.9498 165.584 50.379 166.594 50.4476C167.793 50.5335 168.89 50.0184 170.055 49.8983C171.305 49.7781 172.179 50.5335 173.343 50.7052C174.474 50.8597 175.348 49.9498 176.478 50.1215C177.849 50.3275 179.202 50.791 180.555 51.1344C180.881 51.2202 181.018 50.7223 180.692 50.6365C179.27 50.276 177.797 49.7266 176.341 49.5721C175.108 49.4347 174.217 50.4476 172.984 50.0699C171.836 49.7266 171.014 49.2287 169.78 49.4004C168.461 49.5892 167.262 50.1043 165.909 49.8124C164.864 49.5892 163.854 49.0914 162.774 49.0227C162.38 49.0055 161.969 49.0399 161.592 49.1944C161.113 49.3832 160.856 49.7781 160.41 50.0356C159.383 50.6365 157.995 49.3661 156.899 49.2802C155.854 49.1944 154.895 49.5549 154.072 50.1901C153.815 50.4133 154.192 50.7738 154.449 50.5678Z" fill="#E8E8E8"/>
<path d="M56.2442 13.107C56.5696 13.107 56.5696 12.5919 56.2442 12.5919C55.9187 12.5919 55.9187 13.107 56.2442 13.107Z" fill="#E8E8E8"/>
<path d="M57.7516 13.5018C58.0599 11.9738 60.0812 12.9524 60.8178 13.416C61.6572 13.9482 62.5479 14.4289 63.5757 14.137C64.6891 13.8108 65.4429 12.8494 66.6762 12.7807C67.841 12.7292 68.9716 13.2615 70.0679 13.6048C71.01 13.8967 72.0036 14.1027 72.98 13.8623C74.1277 13.5876 75.1041 12.7807 76.2689 12.5747C78.5643 12.1799 80.637 14.0512 82.9666 13.3301C83.275 13.2271 83.1551 12.7292 82.8296 12.8322C80.3972 13.6048 78.0846 11.4416 75.618 12.2142C74.3503 12.6091 73.2883 13.5018 71.9008 13.4503C70.6161 13.3988 69.4512 12.7807 68.235 12.4717C67.2757 12.2314 66.2993 12.1627 65.3743 12.5919C64.8433 12.8322 64.3808 13.2271 63.8498 13.4846C62.9762 13.8967 62.2396 13.6563 61.4516 13.21C60.5951 12.7121 59.8585 12.1284 58.8136 12.2142C58.0771 12.2657 57.4261 12.6434 57.2891 13.3988C57.2034 13.6907 57.7002 13.828 57.7516 13.5018Z" fill="#E8E8E8"/>
<path d="M59.3104 113.747C61.3489 112.888 63.4044 114.416 65.46 114.519C66.522 114.571 67.5498 114.313 68.5947 114.107C69.9137 113.85 71.0443 113.832 72.3119 114.365C73.0828 114.691 73.7851 114.897 74.573 114.588C75.0184 114.416 75.3953 114.124 75.8407 113.97C76.3374 113.798 76.8513 113.764 77.3823 113.764C79.2152 113.798 81.0481 114.433 82.7953 113.609C83.0865 113.472 82.8296 113.026 82.5384 113.163C80.6712 114.038 78.5985 113.077 76.6286 113.283C75.6865 113.386 75.0698 113.935 74.1962 114.193C73.1513 114.502 72.1235 113.609 71.0957 113.455C68.886 113.111 66.7961 114.347 64.5693 113.901C62.7878 113.541 60.9891 112.493 59.1734 113.266C58.8822 113.386 59.0192 113.884 59.3104 113.747Z" fill="#E8E8E8"/>
<path d="M22.2758 88.458C23.7705 88.458 24.9823 87.2435 24.9823 85.7454C24.9823 84.2473 23.7705 83.0328 22.2758 83.0328C20.781 83.0328 19.5693 84.2473 19.5693 85.7454C19.5693 87.2435 20.781 88.458 22.2758 88.458Z" fill="#0A3871"/>
<path d="M179.818 69.8133C180.869 69.8133 181.72 68.9601 181.72 67.9076C181.72 66.8551 180.869 66.002 179.818 66.002C178.768 66.002 177.917 66.8551 177.917 67.9076C177.917 68.9601 178.768 69.8133 179.818 69.8133Z" fill="#0A3871"/>
<path d="M162.706 3.42409C163.482 3.42409 164.11 2.79381 164.11 2.01631C164.11 1.23881 163.482 0.608521 162.706 0.608521C161.93 0.608521 161.301 1.23881 161.301 2.01631C161.301 2.79381 161.93 3.42409 162.706 3.42409Z" fill="#0A3871"/>
<path d="M100.833 125.507C101.798 125.507 102.58 124.723 102.58 123.756C102.58 122.788 101.798 122.004 100.833 122.004C99.868 122.004 99.0858 122.788 99.0858 123.756C99.0858 124.723 99.868 125.507 100.833 125.507Z" fill="#0A3871"/>
<path d="M20.2887 26.0518C21.3956 26.0518 22.2929 25.1525 22.2929 24.0431C22.2929 22.9337 21.3956 22.0344 20.2887 22.0344C19.1819 22.0344 18.2845 22.9337 18.2845 24.0431C18.2845 25.1525 19.1819 26.0518 20.2887 26.0518Z" fill="#0A3871"/>
<path d="M89.3903 96.527C90.0242 96.527 90.538 96.012 90.538 95.3767C90.538 94.7414 90.0242 94.2264 89.3903 94.2264C88.7565 94.2264 88.2426 94.7414 88.2426 95.3767C88.2426 96.012 88.7565 96.527 89.3903 96.527Z" fill="#0A3871"/>
<path d="M197.719 106.313C198.684 106.313 199.466 105.529 199.466 104.562C199.466 103.595 198.684 102.811 197.719 102.811C196.754 102.811 195.972 103.595 195.972 104.562C195.972 105.529 196.754 106.313 197.719 106.313Z" fill="#0A3871"/>
<path d="M7.27013 135.258C7.98913 135.258 8.57199 134.674 8.57199 133.953C8.57199 133.233 7.98913 132.649 7.27013 132.649C6.55113 132.649 5.96826 133.233 5.96826 133.953C5.96826 134.674 6.55113 135.258 7.27013 135.258Z" fill="#0A3871"/>
<path d="M60.5096 33.8632C59.0193 36.902 57.5118 39.9407 56.0215 42.9795C62.1883 51.2717 68.355 59.5468 74.5217 67.839C76.1148 65.4183 77.6907 62.946 79.2838 60.4567C83.0352 54.5508 86.6153 48.7137 90.0413 42.928C88.8765 39.9579 87.6945 36.9707 86.5297 34.0006C85.776 33.6057 85.0223 33.228 84.2686 32.8331C76.9713 32.8503 69.674 32.8675 62.3938 32.8846C61.7429 33.228 61.1262 33.5542 60.5096 33.8632Z" fill="white"/>
<path d="M56.2271 43.1168C57.529 40.2497 58.8651 37.3998 60.2355 34.5671C60.3725 34.2752 59.9443 34.0005 59.7901 34.3096C58.4197 37.1423 57.0836 39.9922 55.7817 42.8593C55.6447 43.1512 56.0901 43.4259 56.2271 43.1168Z" fill="black"/>
<path d="M55.8845 43.426C61.9142 51.7182 68.0638 59.9074 74.3333 68.0279C74.5389 68.2854 74.8986 67.9249 74.693 67.6674C68.4578 59.5812 62.3424 51.4263 56.3299 43.1684C56.1415 42.9109 55.6961 43.1684 55.8845 43.426Z" fill="black"/>
<path d="M60.3554 34.2753C61.0748 33.8976 61.7772 33.5027 62.4966 33.125C62.7878 32.9705 62.5309 32.5241 62.2397 32.6786C61.5202 33.0563 60.8179 33.4512 60.0984 33.8289C59.7901 34.0006 60.0642 34.4298 60.3554 34.2753Z" fill="black"/>
<path d="M62.9249 33.1593C68.2693 33.1593 73.631 33.1593 78.9755 33.1593C79.3009 33.1593 79.3009 32.6443 78.9755 32.6443C73.631 32.6443 68.2693 32.6443 62.9249 32.6443C62.5994 32.6443 62.5994 33.1593 62.9249 33.1593Z" fill="black"/>
<path d="M90.2811 42.8765C89.2019 40.0094 88.0885 37.1767 86.9408 34.3268C86.8209 34.0178 86.3241 34.1551 86.444 34.4641C87.5917 37.2969 88.7052 40.1468 89.7844 43.0139C89.9043 43.3229 90.401 43.1855 90.2811 42.8765Z" fill="black"/>
<path d="M89.7158 43.1341C84.6968 51.3748 79.575 59.564 74.3504 67.6845C74.162 67.9592 74.6073 68.2167 74.7958 67.942C80.0203 59.8215 85.1422 51.6494 90.1612 43.3916C90.3325 43.1169 89.8871 42.8422 89.7158 43.1341Z" fill="black"/>
<path d="M86.6325 33.7946C86.0329 33.4169 85.4334 33.022 84.8338 32.6443C84.5598 32.4726 84.3028 32.9018 84.5769 33.0907C85.1764 33.4684 85.776 33.8633 86.3755 34.241C86.6667 34.4298 86.9237 33.9834 86.6325 33.7946Z" fill="black"/>
<path d="M84.2514 32.5929C79.7806 32.5929 75.3097 32.5929 70.8559 32.5929C70.5305 32.5929 70.5305 33.1079 70.8559 33.1079C75.3268 33.1079 79.7977 33.1079 84.2514 33.1079C84.5769 33.1079 84.5769 32.5929 84.2514 32.5929Z" fill="black"/>
<path d="M56.4327 43.3744C59.4989 42.0524 62.5651 40.7305 65.6314 39.4085C65.9397 39.2712 65.6656 38.842 65.3744 38.9621C62.3082 40.2841 59.2419 41.606 56.1757 42.928C55.8845 43.0653 56.1414 43.5117 56.4327 43.3744Z" fill="black"/>
<path d="M60.441 34.1207C62.3253 34.4126 64.1753 34.8246 66.0082 35.3397C66.3337 35.4255 66.4707 34.9277 66.1453 34.8418C64.3124 34.3096 62.4624 33.9147 60.5781 33.6229C60.2526 33.5714 60.0984 34.0692 60.441 34.1207Z" fill="black"/>
<path d="M65.8712 35.2539C66.2823 36.5416 66.642 37.8292 66.9503 39.1511C67.0189 39.4773 67.5156 39.34 67.4471 39.0138C67.1388 37.6918 66.779 36.4042 66.3679 35.1166C66.2651 34.8076 65.7684 34.9278 65.8712 35.2539Z" fill="black"/>
<path d="M66.6591 35.3054C71.2499 35.3054 75.8236 35.3054 80.4144 35.3054C80.7398 35.3054 80.7398 34.7904 80.4144 34.7904C75.8236 34.7904 71.2499 34.7904 66.6591 34.7904C66.3337 34.7904 66.3337 35.3054 66.6591 35.3054Z" fill="black"/>
<path d="M80.1917 35.4084C80.0204 36.3527 79.8491 37.3141 79.6778 38.2584C79.6264 38.5845 80.1232 38.7219 80.1746 38.3957C80.3459 37.4514 80.5172 36.49 80.6884 35.5458C80.7398 35.2196 80.2431 35.0822 80.1917 35.4084Z" fill="black"/>
<path d="M67.2244 39.1853C71.2328 39.1853 75.2412 39.1853 79.2667 39.1853C79.5922 39.1853 79.5922 38.6703 79.2667 38.6703C75.2583 38.6703 71.2499 38.6703 67.2244 38.6703C66.899 38.6703 66.899 39.1853 67.2244 39.1853Z" fill="black"/>
<path d="M80.9111 35.3054C82.7783 34.9106 84.6283 34.5157 86.4955 34.1208C86.8209 34.0521 86.6839 33.5543 86.3584 33.6229C84.4913 34.0178 82.6413 34.4127 80.7741 34.8075C80.4486 34.8762 80.5857 35.3741 80.9111 35.3054Z" fill="black"/>
<path d="M80.0547 39.0309C81.7848 39.3056 83.395 40.2842 84.9709 41.0224C86.6496 41.8121 88.3112 42.6019 89.9899 43.3916C90.2812 43.529 90.5552 43.0826 90.2469 42.9452C88.4654 42.104 86.701 41.2799 84.9195 40.4387C83.4121 39.7176 81.8533 38.8077 80.1917 38.533C79.8662 38.4815 79.7292 38.9794 80.0547 39.0309Z" fill="black"/>
<path d="M67.3786 39.9751C69.6055 49.1772 71.8152 58.3965 74.0421 67.5987C74.1277 67.9249 74.6074 67.7875 74.5388 67.4613C72.312 58.2592 70.1022 49.0399 67.8754 39.8378C67.7897 39.5116 67.2929 39.6489 67.3786 39.9751Z" fill="black"/>
<path d="M79.3352 40.5931C77.2453 49.4519 75.5152 58.4137 74.1791 67.427C74.1277 67.7531 74.6245 67.8905 74.6759 67.5643C76.012 58.551 77.7421 49.6064 79.832 40.7305C79.9176 40.4043 79.4208 40.2669 79.3352 40.5931Z" fill="black"/>
<path d="M79.5065 23.4078C80.2773 21.4335 80.7056 19.3562 80.7741 17.2273C80.7912 16.9011 80.2773 16.9011 80.2602 17.2273C80.1917 19.3047 79.7634 21.3305 79.0097 23.2705C78.8898 23.5795 79.3866 23.6997 79.5065 23.4078Z" fill="black"/>
<path d="M83.0181 23.7512C84.6625 21.8799 86.5126 20.2317 88.5853 18.8411C88.8594 18.6523 88.6024 18.2059 88.3283 18.3947C86.2214 19.8025 84.32 21.485 82.6584 23.3907C82.4357 23.631 82.7954 23.9916 83.0181 23.7512Z" fill="black"/>
<path d="M86.3927 26.9274C88.5168 26.2922 90.7094 26.0518 92.9191 26.2235C93.2446 26.2406 93.2446 25.7256 92.9191 25.7084C90.658 25.5368 88.4311 25.7771 86.2556 26.4295C85.9473 26.5325 86.0672 27.0304 86.3927 26.9274Z" fill="black"/>
<path d="M50.3002 14.8925C50.5058 18.2918 48.6043 21.5365 45.5552 23.013C45.3839 23.0988 45.4011 23.3564 45.5552 23.4594C48.3474 25.1419 49.6321 28.2321 50.3687 31.2709C50.4544 31.5971 50.934 31.4597 50.8655 31.1335C50.0946 27.9574 48.7243 24.747 45.8122 23.013C45.8122 23.1675 45.8122 23.3049 45.8122 23.4594C49.0155 21.8971 51.0368 18.4463 50.8141 14.8925C50.797 14.5663 50.2831 14.5663 50.3002 14.8925Z" fill="#E8E8E8"/>
<path d="M50.4886 14.8925C50.2659 18.4634 52.2872 21.9142 55.4905 23.4594C55.4905 23.3049 55.4905 23.1675 55.4905 23.013C52.5613 24.7642 51.1909 27.9746 50.4201 31.1679C50.3345 31.4941 50.8312 31.6314 50.9169 31.3052C51.6535 28.2493 52.9382 25.1419 55.7475 23.4594C55.9016 23.3735 55.9188 23.0988 55.7475 23.013C52.6984 21.5365 50.7798 18.2918 50.9854 14.8925C51.0196 14.5663 50.5058 14.5663 50.4886 14.8925Z" fill="#E8E8E8"/>
<path d="M133.894 143.774C134.493 143.516 135.315 143.138 136.257 142.606C137.833 141.731 138.621 141.284 139.101 140.58C139.718 139.653 139.478 139.155 140.283 138.228C140.403 138.074 140.968 137.473 141.705 137.147C142.972 136.615 144.154 137.25 146.124 137.954C147.94 138.606 149.362 138.915 152.205 139.55C153.336 139.808 154.706 140.065 156.693 140.683C157.259 140.855 157.704 141.01 158.012 141.113C158.047 141.473 158.064 142.4 157.464 143.241C157.19 143.619 156.813 143.928 156.214 144.203C154.826 144.855 153.507 144.735 152.394 144.684C149.996 144.581 150.989 144.924 145.336 145.027C144.103 145.044 143.092 145.044 142.39 145.044C141.516 145.645 140.643 146.263 139.752 146.898C138.245 147.997 136.806 149.096 135.435 150.177C134.921 148.049 134.407 145.903 133.894 143.774Z" fill="black"/>
<path d="M126.75 121.798C125.517 122.451 125.38 122.691 120.789 126.606C113.629 132.7 112.841 133.026 106.349 138.709C100.131 144.134 98.9659 145.491 97.7839 147.276C94.8376 151.791 94.1867 155.568 93.9983 157.405C93.7413 159.877 93.3987 163.311 95.5742 166.024C96.9446 167.723 98.7261 168.427 99.3256 168.65C101.124 169.337 102.597 169.251 105.253 169.062C108.781 168.805 111.471 168.118 112.533 167.826C113.698 167.5 116.404 166.693 119.796 165.011C122.982 163.431 124.352 162.264 128.703 159.328C130.639 158.023 133.5 156.118 137.097 153.92C137.32 152.203 137.131 150.864 136.943 150.023C136.497 148.031 135.589 146.658 134.579 145.147C133.757 143.911 132.969 142.967 132.42 142.349C133.705 141.37 135.384 139.962 137.148 138.074C138.33 136.803 140.197 134.778 141.756 131.928C143.675 128.425 145.593 124.889 144.36 122.451C142.424 118.622 133.208 118.451 126.75 121.798Z" fill="white"/>
<path opacity="0.18" d="M142.099 123.67C141.122 125.936 139.512 129.146 136.943 132.58C133.208 137.542 129.44 140.289 123.753 144.357C107.668 155.86 103.351 158.487 103.831 159.586C104.482 161.079 113.543 158.401 114.862 158.006C124.489 155.156 131.581 150.761 136.018 147.551C134.887 145.817 133.757 144.083 132.626 142.366C134.013 141.37 135.932 139.791 137.731 137.439C138.724 136.151 140.232 134.16 141.208 131.155C142.202 128.168 142.236 125.507 142.099 123.67Z" fill="#9B9797"/>
<path d="M126.682 121.781C120.584 126.331 114.64 131.104 108.918 136.1C106.178 138.486 103.437 140.872 100.867 143.43C98.5891 145.697 96.465 148.203 95.1802 151.19C93.8441 154.281 93.4673 157.852 93.7927 161.199C94.0668 163.963 95.0775 166.745 97.5955 168.187C100.234 169.68 103.557 169.526 106.469 169.217C110.049 168.856 113.578 167.981 116.918 166.625C124.369 163.586 130.211 157.903 137.251 154.143C137.542 153.989 137.285 153.542 136.994 153.697C131.119 156.839 126.117 161.371 120.224 164.513C117.141 166.161 113.817 167.363 110.391 168.101C107.222 168.771 103.659 169.286 100.439 168.668C98.9317 168.376 97.4756 167.758 96.3965 166.625C95.3515 165.509 94.7863 164.049 94.495 162.556C93.8612 159.311 94.1525 155.637 95.2145 152.512C96.2765 149.388 98.3492 146.761 100.61 144.426C102.957 142.005 105.527 139.774 108.045 137.559C114.126 132.202 120.43 127.086 126.939 122.245C127.196 122.039 126.956 121.593 126.682 121.781Z" fill="black"/>
<path d="M109.895 156.976C115.513 154.796 120.601 151.534 125.431 147.963C127.812 146.212 130.159 144.392 132.489 142.572C134.784 140.769 136.977 138.864 138.758 136.546C138.964 136.288 138.519 136.031 138.313 136.288C136.497 138.658 134.219 140.563 131.889 142.4C129.594 144.203 127.281 145.988 124.918 147.722C120.19 151.19 115.239 154.384 109.758 156.495C109.449 156.598 109.586 157.096 109.895 156.976Z" fill="black"/>
<path d="M132.232 142.52C135.538 145.302 137.285 149.611 136.823 153.92C136.788 154.246 137.302 154.246 137.337 153.92C137.799 149.491 135.983 145.027 132.592 142.16C132.352 141.937 131.992 142.297 132.232 142.52Z" fill="black"/>
<path d="M136.788 149.13C137.765 148.838 138.621 148.014 139.444 147.43C140.471 146.709 141.482 145.988 142.51 145.267C142.784 145.078 142.527 144.632 142.253 144.821C141.328 145.473 140.386 146.143 139.461 146.795C138.604 147.396 137.662 148.323 136.651 148.632C136.326 148.718 136.463 149.216 136.788 149.13Z" fill="black"/>
<path d="M133.962 144.014C135.898 143.207 137.679 142.108 139.289 140.752C139.546 140.529 139.169 140.168 138.93 140.392C137.405 141.696 135.692 142.744 133.842 143.516C133.534 143.653 133.671 144.151 133.962 144.014Z" fill="black"/>
<path d="M139.101 140.529C139.426 140.529 139.426 140.014 139.101 140.014C138.776 140.014 138.776 140.529 139.101 140.529Z" fill="black"/>
<path d="M139.718 139.911C140.009 139.224 140.317 138.469 140.865 137.937C141.602 137.215 142.493 137.318 143.435 137.524C145.182 137.919 146.895 138.469 148.608 138.967C150.201 139.413 151.794 139.808 153.439 139.997C154.398 140.1 155.203 140.22 156.06 140.649C156.693 140.958 157.241 141.267 157.944 141.336C158.269 141.37 158.269 140.855 157.944 140.821C157.002 140.735 156.265 140.083 155.374 139.791C154.484 139.499 153.49 139.516 152.565 139.361C150.544 139.035 148.574 138.417 146.621 137.834C145.662 137.559 144.702 137.284 143.726 137.061C143.007 136.906 142.253 136.718 141.533 136.941C140.283 137.318 139.683 138.658 139.221 139.774C139.101 140.083 139.598 140.22 139.718 139.911Z" fill="black"/>
<path d="M142.441 145.645C146.107 145.096 149.739 145.01 153.439 144.941C154.723 144.924 156.094 144.769 157.122 143.928C157.995 143.207 158.492 142.16 158.252 141.044C158.184 140.718 157.687 140.855 157.755 141.181C158.081 142.744 156.676 143.894 155.289 144.237C153.867 144.581 152.325 144.409 150.869 144.443C147.991 144.495 145.148 144.735 142.304 145.164C141.979 145.199 142.133 145.697 142.441 145.645Z" fill="black"/>
<path d="M155.443 142.228C156.71 141.319 157.995 140.409 159.263 139.499C159.348 138.915 159.622 137.645 160.667 136.563C160.976 136.237 161.695 135.481 162.774 135.275C163.905 135.052 164.779 135.567 165.755 136.014C167.331 136.735 168.855 137.009 171.87 137.593C174.251 138.039 175.45 138.263 177.163 138.177C179.493 138.039 181.155 137.421 182.148 138.4C182.251 138.503 182.679 138.967 182.645 139.533C182.594 140.254 181.823 140.718 181.206 141.078C178.517 142.623 177.009 143.07 177.009 143.07C173.206 144.186 171.288 144.752 169.643 144.89C168.307 144.993 166.406 145.044 164.11 144.684C163.442 146.984 161.421 148.46 159.52 148.34C157.07 148.186 154.809 145.422 155.443 142.228Z" fill="black"/>
<path d="M130.844 127.052C131.221 125.902 131.924 124.442 133.243 123.962C134.099 123.653 134.887 123.859 135.144 123.927C136.737 124.322 140.009 123.756 146.535 122.64C149.773 122.09 153.867 121.283 158.578 120.082C158.595 120.957 158.578 122.107 158.526 123.447C158.406 126.451 158.098 128.717 158.029 129.249C157.738 131.378 157.224 134.915 155.665 139.207C155.272 140.306 154.878 141.216 154.603 141.834C155.271 142.143 155.991 142.555 156.693 143.138C159.588 145.456 160.428 148.735 160.702 150.126C160.291 150.624 159.674 151.362 158.886 152.203C155.7 155.602 152.753 157.508 147.135 160.993C143.675 163.139 141.139 164.702 137.08 167.105C132.146 170.024 128.155 172.29 123.187 173.715C121.954 174.075 120.001 174.556 117.535 174.299C116.335 174.178 114.177 173.955 112.104 172.444C109.449 170.522 108.61 167.706 108.267 166.47C107.497 163.706 107.788 161.113 108.507 158.418C109.004 156.53 110.803 150.263 117.055 143.207C118.305 141.799 121.868 138.623 128.96 132.271C130.673 130.743 132.078 129.49 133.02 128.666C132.3 128.116 131.581 127.584 130.844 127.052Z" fill="white"/>
<path opacity="0.18" d="M154.141 122.296C153.747 123.807 153.113 125.987 152.154 128.545C143.401 151.791 123.838 161.835 125.431 164.341C126.596 166.195 137.765 161.577 145.816 156.718C151.846 153.079 156.334 149.182 159.331 146.246C158.852 145.542 158.115 144.581 157.002 143.671C155.922 142.795 154.895 142.263 154.124 141.937C154.655 141.164 155.357 139.997 155.957 138.503C156.351 137.542 156.693 136.511 157.139 134.417C157.858 131.104 158.149 128.477 158.235 127.653C158.441 125.678 158.629 123.12 158.595 120.099C157.104 120.82 155.631 121.558 154.141 122.296Z" fill="#9B9797"/>
<path d="M158.338 120.082C158.355 123.326 158.149 126.571 157.704 129.799C157.293 132.7 156.779 135.687 155.717 138.434C154.569 141.404 152.599 143.568 150.218 145.611C147.786 147.688 145.336 149.731 142.887 151.774C140.077 154.126 137.251 156.461 134.442 158.813C134.185 159.019 134.545 159.379 134.801 159.173C139.958 154.881 145.114 150.607 150.235 146.263C152.497 144.34 154.552 142.349 155.785 139.585C156.985 136.906 157.567 133.971 158.029 131.086C158.612 127.447 158.886 123.773 158.852 120.082C158.852 119.738 158.338 119.738 158.338 120.082Z" fill="black"/>
<path d="M131.136 127.533C131.838 127.91 132.54 128.288 133.26 128.666C133.551 128.82 133.808 128.374 133.517 128.219C132.814 127.842 132.112 127.464 131.393 127.086C131.101 126.932 130.844 127.378 131.136 127.533Z" fill="black"/>
<path d="M133.26 128.46C127.162 133.439 120.755 138.366 115.667 144.409C111.282 149.611 107.668 156.203 107.685 163.191C107.685 166.264 108.524 169.474 110.785 171.655C113.047 173.852 116.318 174.711 119.402 174.556C123.17 174.367 126.75 172.874 130.108 171.226C133.705 169.457 137.114 167.363 140.54 165.285C147.597 160.993 155.477 156.993 160.77 150.452C160.976 150.195 160.616 149.834 160.41 150.092C155.974 155.585 149.739 159.105 143.795 162.71C140.523 164.702 137.285 166.728 133.945 168.616C130.673 170.47 127.264 172.239 123.65 173.286C120.258 174.264 116.473 174.47 113.269 172.771C110.186 171.157 108.61 168.032 108.285 164.633C107.651 157.766 111.094 150.933 115.256 145.714C120.447 139.207 127.23 134.022 133.637 128.803C133.876 128.614 133.517 128.254 133.26 128.46Z" fill="black"/>
<path d="M154.484 142.04C157.704 143.585 159.948 146.641 160.479 150.177C160.53 150.504 161.027 150.366 160.976 150.04C160.445 146.383 158.081 143.173 154.758 141.593C154.449 141.456 154.192 141.902 154.484 142.04Z" fill="black"/>
<path d="M155.511 142.486C156.197 142.211 156.745 141.748 157.327 141.302C158.012 140.769 158.715 140.254 159.4 139.722C159.657 139.516 159.4 139.07 159.143 139.276C158.526 139.739 157.91 140.203 157.293 140.683C156.693 141.147 156.094 141.714 155.374 141.988C155.083 142.108 155.203 142.606 155.511 142.486Z" fill="black"/>
<path d="M159.657 139.516C159.999 138.503 160.41 137.507 160.959 136.58C161.712 135.31 162.843 135.447 164.11 135.773C166.08 136.271 167.965 137.027 169.952 137.473C173.806 138.331 177.763 138.623 181.703 138.366C182.028 138.348 182.028 137.833 181.703 137.851C177.061 138.16 172.384 137.679 167.896 136.408C166.817 136.099 165.772 135.705 164.693 135.396C163.871 135.155 162.894 134.88 162.038 135.052C161.267 135.207 160.822 135.79 160.445 136.443C159.914 137.37 159.503 138.366 159.16 139.379C159.057 139.688 159.554 139.825 159.657 139.516Z" fill="black"/>
<path d="M160.393 147.808C161.678 146.83 162.946 145.851 164.23 144.872C164.487 144.666 164.23 144.22 163.973 144.426C162.689 145.405 161.421 146.383 160.136 147.362C159.879 147.568 160.136 148.014 160.393 147.808Z" fill="black"/>
<path d="M164.213 144.752C168.393 145.662 172.658 144.975 176.615 143.465C178.414 142.778 180.469 142.005 182.011 140.838C183.09 140.031 183.244 138.486 181.823 137.936C181.514 137.816 181.377 138.314 181.686 138.434C182.457 138.726 182.542 139.567 182.011 140.151C181.754 140.443 181.394 140.632 181.052 140.838C180.35 141.233 179.63 141.593 178.911 141.937C177.386 142.658 175.81 143.276 174.183 143.756C170.98 144.683 167.622 144.993 164.333 144.271C164.025 144.186 163.888 144.683 164.213 144.752Z" fill="black"/>
<path d="M119.573 70.6031C122.177 68.4399 126.065 65.8304 131.256 64.2852C133.688 63.5642 136.737 62.6714 140.78 63.0148C146.981 63.547 151.246 66.6029 152.753 67.7189C155.117 69.4529 156.728 71.2898 157.721 72.5775C157.909 84.6123 158.166 96.6644 158.492 108.699C158.595 112.408 158.697 116.133 158.817 119.841C156.385 121.352 152.976 123.052 148.659 124.048C138.553 126.365 130.142 123.275 126.733 121.781C126.716 118.743 126.528 114.176 125.603 108.699C124.095 99.7031 121.749 96.0806 120.275 88.3378C119.539 84.3376 118.836 78.3288 119.573 70.6031Z" fill="#0A3871"/>
<path d="M150.544 73.5731C149.704 74.5002 149.55 75.5475 149.602 79.5648C149.636 83.7882 149.859 86.6724 149.996 90.0202C150.098 92.4409 150.184 94.3638 150.133 96.8703C150.081 100.029 149.876 102.622 149.687 104.356C148.008 106.244 146.518 107.721 145.405 108.785C142.904 111.171 140.18 113.747 136.155 116.167C134.562 117.112 133.191 117.798 132.266 118.227C131.427 118.09 130.485 117.884 129.457 117.627C127.025 117.009 126.014 116.459 124.181 116.459C123.633 116.459 121.903 116.459 121.731 117.077C121.577 117.592 122.537 118.399 123.29 118.794C123.993 119.155 124.301 119.052 125.003 119.378C125.791 119.755 126.305 120.305 126.613 120.717C126.288 121.18 125.791 121.884 125.243 122.794C124.609 123.859 124.472 124.271 123.736 125.541C122.965 126.88 122.571 127.55 122.228 127.893C121.697 128.391 121.372 128.494 118.991 129.558C116.627 130.623 116.216 130.863 116.216 131.155C116.216 131.447 116.678 131.516 118.511 132.305C120.001 132.941 120.138 133.078 120.909 133.301C121.868 133.576 122.451 133.747 123.153 133.593C124.267 133.37 124.986 132.529 125.294 132.082C125.449 132.219 125.825 132.511 126.322 132.529C126.716 132.529 127.042 132.374 127.299 132.168C128.378 131.395 128.909 129.97 129.971 128.374C130.159 128.099 130.827 127.086 131.906 125.953C132.575 125.232 133.191 124.7 133.637 124.339C134.236 124.202 135.127 123.996 136.189 123.687C140.317 122.502 143.298 121.077 145.799 119.876C147.255 119.172 148.899 118.245 152.171 116.408C155.015 114.811 156.488 113.918 157.79 112.167C157.927 111.978 158.629 111.034 159.246 109.643C159.434 109.214 160.102 107.686 160.462 105.008C160.633 103.823 160.633 103.171 160.65 99.4627C160.685 94.7414 160.685 95.308 160.685 94.8273C160.667 87.9085 160.308 88.5266 160.188 82.1744C160.171 81.5735 160.153 79.9425 159.657 77.8823C159.126 75.6505 158.458 74.6547 158.081 74.1569C157.601 73.5216 157.019 72.7662 156.025 72.337C154.209 71.5301 151.794 72.1825 150.544 73.5731Z" fill="white"/>
<path opacity="0.25" d="M156.042 72.3198C156.453 73.6761 156.95 75.6333 157.293 78.0025C157.704 80.8696 157.858 84.0285 156.933 92.2864C156.162 99.188 155.785 102.639 154.792 105.866C153.37 110.467 152.342 113.815 149.208 116.459C147.186 118.159 144.976 118.948 140.54 120.511C137.285 121.661 134.493 122.348 132.575 122.777C131.204 124.631 129.166 126.983 126.271 129.215C124.01 130.966 121.834 132.168 120.036 132.992C120.292 133.164 121.355 133.85 122.793 133.662C124.472 133.438 125.38 132.237 125.534 132.013C125.86 132.254 126.339 132.511 126.87 132.425C127.967 132.254 128.549 130.691 128.84 129.988C129.474 128.528 130.742 126.52 133.585 124.322C135.469 123.824 138.022 123.069 140.985 121.936C145.114 120.339 147.889 118.794 150.869 117.129C155.648 114.45 156.728 113.352 157.516 112.287C158.954 110.347 159.554 108.356 159.811 107.48C160.273 105.918 160.359 104.167 160.53 100.75C160.65 98.2094 160.65 96.2522 160.65 94.7758C160.65 92.2349 160.599 90.3464 160.547 88.7154C160.479 86.3462 160.342 83.565 159.999 80.2343C159.742 77.8136 159.554 76.8522 159.006 75.7706C158.166 74.0538 156.916 72.955 156.042 72.3198Z" fill="#9B9797"/>
<path d="M150.287 73.5044C149.396 75.7362 149.293 78.1398 149.345 80.5262C149.396 83.1529 149.533 85.7624 149.653 88.3892C149.893 93.7113 150.064 99.0506 149.43 104.356C149.396 104.682 149.91 104.682 149.944 104.356C150.561 99.1707 150.424 93.9345 150.184 88.7325C150.064 86.1573 149.927 83.5821 149.859 80.9897C149.79 78.5003 149.841 75.9938 150.784 73.6417C150.903 73.3327 150.407 73.1954 150.287 73.5044Z" fill="black"/>
<path d="M150.424 103.909C148.848 104.785 147.58 106.055 146.364 107.377C145.045 108.802 143.726 110.193 142.253 111.463C139.238 114.09 135.846 116.253 132.215 117.936C131.906 118.073 132.181 118.519 132.472 118.382C135.966 116.768 139.238 114.708 142.167 112.219C143.623 111 144.959 109.661 146.244 108.27C147.58 106.811 148.916 105.334 150.664 104.373C150.972 104.184 150.715 103.738 150.424 103.909Z" fill="black"/>
<path d="M132.335 117.97C130.45 117.575 128.549 117.163 126.665 116.734C125.723 116.528 124.763 116.27 123.804 116.099C123.205 115.996 122.571 115.944 122.04 116.287C121.218 116.82 121.218 117.798 121.954 118.382C122.485 118.811 123.17 119 123.804 119.206C124.832 119.532 125.706 119.944 126.374 120.82C126.579 121.077 127.025 120.82 126.819 120.562C126.219 119.79 125.5 119.24 124.575 118.914C123.941 118.691 123.239 118.554 122.656 118.227C122.245 118.004 121.714 117.661 122.023 117.043C122.314 116.459 123.05 116.511 123.581 116.596C125.003 116.802 126.425 117.215 127.847 117.541C129.303 117.867 130.759 118.176 132.215 118.485C132.523 118.536 132.66 118.039 132.335 117.97Z" fill="black"/>
<path d="M125.962 120.906C125.209 122.296 124.438 123.67 123.684 125.06C123.307 125.73 122.982 126.451 122.536 127.103C122.074 127.773 121.457 128.116 120.738 128.46C119.385 129.095 117.929 129.61 116.627 130.348C116.044 130.692 115.667 131.31 116.164 131.91C116.781 132.649 117.997 132.357 118.819 132.219C119.95 132.031 121.029 131.653 122.057 131.172C124.198 130.142 126.014 128.528 127.316 126.537C127.504 126.262 127.059 126.005 126.87 126.279C125.723 128.065 124.13 129.507 122.262 130.503C121.372 130.966 120.412 131.344 119.436 131.567C118.888 131.704 118.305 131.825 117.723 131.842C117.192 131.876 117.055 131.945 116.798 131.413C116.473 131.104 116.507 130.898 116.884 130.795C117.004 130.743 117.106 130.692 117.226 130.64C118.323 130.125 119.436 129.627 120.532 129.112C121.389 128.717 122.228 128.374 122.811 127.601C123.496 126.691 123.975 125.61 124.524 124.614C125.157 123.464 125.791 122.313 126.408 121.18C126.562 120.871 126.117 120.614 125.962 120.906Z" fill="black"/>
<path d="M133.791 124.665C138.364 123.378 142.801 121.661 147.049 119.532C149.156 118.468 151.212 117.318 153.216 116.047C155.015 114.914 156.916 113.764 158.201 112.03C158.389 111.755 157.944 111.498 157.755 111.772C156.419 113.592 154.329 114.777 152.445 115.944C150.527 117.129 148.54 118.227 146.518 119.24C142.39 121.283 138.09 122.932 133.654 124.185C133.345 124.253 133.482 124.751 133.791 124.665Z" fill="black"/>
<path d="M150.629 73.968C152.051 71.1696 155.7 71.8048 157.498 73.7964C159.657 76.1999 159.76 79.7194 159.999 82.7753C160.513 89.4537 160.616 96.1836 160.205 102.862C159.999 106.107 159.52 109.54 157.361 112.116C157.156 112.373 157.516 112.734 157.721 112.476C159.657 110.141 160.325 107.188 160.599 104.235C160.959 100.458 160.959 96.63 160.924 92.8358C160.89 88.87 160.702 84.887 160.342 80.9383C160.068 77.9682 159.537 74.6891 157.087 72.7148C154.997 71.0323 151.503 71.0838 150.167 73.7105C150.03 74.0024 150.475 74.2599 150.629 73.968Z" fill="black"/>
<path d="M118.357 132.511C119.607 133.078 121.115 133.936 122.536 133.936C123.907 133.919 124.918 132.786 125.843 131.928C128.498 129.455 131.153 126.983 133.808 124.528C134.048 124.305 133.688 123.944 133.448 124.168C131.204 126.262 128.96 128.339 126.716 130.434C125.723 131.344 124.695 132.649 123.444 133.215C121.971 133.885 119.95 132.683 118.631 132.082C118.323 131.928 118.066 132.374 118.357 132.511Z" fill="black"/>
<path d="M125.329 132.151C125.894 133.215 127.144 132.786 127.778 132.048C129.029 130.571 130.005 128.786 131.067 127.189C131.256 126.915 130.81 126.657 130.622 126.932C129.954 127.928 129.286 128.923 128.618 129.919C128.241 130.468 126.579 133.438 125.774 131.893C125.62 131.601 125.174 131.859 125.329 132.151Z" fill="black"/>
<path d="M121.355 131.31C121.868 131.584 122.502 131.859 123.068 131.584C123.359 131.43 123.479 131.19 123.616 130.915C123.855 130.451 124.095 130.091 124.541 129.799C124.815 129.61 124.558 129.164 124.284 129.353C123.873 129.627 123.53 129.971 123.29 130.417C123.119 130.743 123.016 131.138 122.571 131.172C122.245 131.207 121.886 131.001 121.611 130.863C121.337 130.726 121.063 131.155 121.355 131.31Z" fill="black"/>
<path d="M117.843 33.2107C117.243 34.4297 116.644 36.4727 116.455 37.1423C116.181 38.1037 115.565 40.3527 115.222 43.34C115.034 44.9881 114.828 46.7908 114.999 49.1771C115.085 50.3102 115.205 52.0957 115.873 54.3104C116.318 55.8212 116.969 58.0016 118.734 60.2334C120.275 62.1734 122.04 63.3923 123.444 64.1306C124.335 64.1477 125.414 64.0962 126.613 63.8731C128.772 63.461 130.45 62.6541 131.581 62.0017C131.735 62.8773 131.941 63.8044 132.198 64.7658C132.729 66.7573 133.38 68.5085 134.031 70.0193C134.733 69.8991 135.572 69.6931 136.463 69.281C139.289 67.9591 140.643 65.5212 141.122 64.5083C140.865 63.5125 140.66 62.4309 140.471 61.315C139.82 57.1431 139.992 53.4177 140.403 50.3961C140.763 50.5162 141.345 50.6708 142.064 50.6364C143.469 50.5506 144.428 49.778 144.908 49.366C145.319 49.0226 147.186 47.3573 147.118 44.8851C147.101 44.3014 147.066 42.8764 146.056 42.1038C145.114 41.4 143.846 41.6575 142.921 41.8463C141.859 42.0695 141.071 42.5159 140.591 42.8249C140.951 41.6403 141.705 38.6015 140.591 35.0649C140.351 34.3095 138.758 29.5024 134.065 27.4251C127.693 24.5752 120.035 28.7985 117.843 33.2107Z" fill="white"/>
<path opacity="0.24" d="M137.2 33.3138C137.337 34.9105 137.439 37.2282 137.2 39.9751C136.463 48.3016 133.174 54.0873 132.318 55.5294C131.016 57.727 128.789 60.9202 125.226 64.062C126.288 63.9247 127.504 63.6843 128.806 63.2208C132.386 61.9503 134.784 59.77 136.086 58.345C136.189 60.2507 136.514 62.5684 137.285 65.1093C137.628 66.1908 138.005 67.1866 138.399 68.0793C139.307 66.8947 140.197 65.7101 141.105 64.5084C140.917 63.3924 140.745 62.2078 140.626 60.9889C140.232 57.2977 140.232 53.8985 140.437 50.8769C141.208 50.894 142.321 50.8254 143.503 50.3618C148.677 48.3016 151.623 40.1124 148.831 35.6487C148.711 35.4599 148.094 34.4985 146.827 33.64C142.904 30.9962 137.919 33.0048 137.2 33.3138Z" fill="#9B9797"/>
<path d="M116.592 36.6273C116.25 35.4427 115.77 33.1765 116.267 30.3953C116.421 29.5368 116.952 26.7728 118.836 24.5924C121.594 21.4163 125.055 22.0172 129.543 20.4034C132.386 19.3905 136.292 17.2616 140.249 12.2485C139.889 14.1027 139.529 15.974 139.169 17.8282C139.786 17.9999 141.859 18.4462 143.983 17.399C147.512 15.665 147.82 11.476 147.837 11.2871C148.265 12.2485 149.036 14.3774 148.694 17.0899C148.454 18.9441 147.786 20.3347 147.306 21.176C147.512 21.3991 148.608 22.5322 149.876 22.3606C151.417 22.1545 152.856 20.0429 152.445 17.3131C152.788 18.326 153.199 19.9914 153.096 22.0344C152.959 24.5237 152.137 26.3951 151.589 27.408C151.726 27.5282 152.599 28.3179 153.833 28.1634C154.912 28.026 155.837 27.2363 156.196 26.1204C156.111 27.2707 155.905 28.936 155.237 30.8416C154.329 33.4168 153.576 33.6229 153.199 35.4599C152.599 38.3441 154.141 39.3227 153.73 41.8979C153.387 44.0611 151.983 45.4174 150.201 47.1514C146.964 50.2931 143.246 51.9928 140.129 52.937C140.266 51.9756 140.42 51.0142 140.557 50.0528C140.951 50.2931 141.636 50.6193 142.493 50.585C144.24 50.5163 145.336 48.954 145.919 48.1128C146.587 47.1685 147.7 45.5547 147.101 43.8207C146.604 42.413 145.285 41.8292 145.165 41.7777C143.623 41.1253 141.636 41.7091 140.351 43.2885C139.632 40.4558 138.93 37.6402 138.21 34.8075C135.778 33.2623 133.362 31.7344 130.93 30.1892C129.731 29.966 126.459 29.5197 122.793 31.1507C119.093 32.7988 117.209 35.5972 116.592 36.6273Z" fill="#0A3871"/>
<path d="M116.335 36.5586C114.879 42.0181 114.006 47.8209 115.342 53.4005C116.438 57.9329 119.213 63.1005 123.941 64.577C124.249 64.68 124.386 64.1821 124.078 64.0791C119.333 62.6027 116.678 57.229 115.702 52.6966C114.554 47.3745 115.428 41.8807 116.815 36.6959C116.918 36.3869 116.421 36.2496 116.335 36.5586Z" fill="black"/>
<path d="M124.318 64.4912C132.215 63.6843 138.81 57.9673 140.66 50.2073C140.728 49.8811 140.249 49.7437 140.163 50.0699C138.364 57.5724 132.009 63.1864 124.318 63.9761C123.993 64.0105 123.975 64.5255 124.318 64.4912Z" fill="black"/>
<path d="M140.214 50.3447C143.743 52.5078 147.186 47.9755 147.409 44.7994C147.529 43.1169 146.758 41.8293 145.096 41.3486C143.555 40.9022 141.876 41.3657 140.78 42.5332C140.557 42.7735 140.917 43.134 141.139 42.8937C142.047 41.9151 143.418 41.4859 144.737 41.7778C145.422 41.9323 146.176 42.31 146.57 42.928C146.998 43.5976 146.946 44.5247 146.844 45.2629C146.433 47.924 143.486 51.7353 140.471 49.8811C140.197 49.7266 139.923 50.173 140.214 50.3447Z" fill="black"/>
<path d="M140.18 50.3103C139.512 55.0659 139.752 59.8901 140.882 64.5599C140.968 64.8861 141.465 64.7487 141.379 64.4225C140.266 59.8386 140.026 55.1002 140.677 50.4476C140.711 50.1214 140.214 49.9841 140.18 50.3103Z" fill="black"/>
<path d="M131.324 62.0704C131.855 64.8517 132.677 67.5471 133.808 70.1566C133.945 70.4657 134.39 70.191 134.253 69.8991C133.14 67.3411 132.335 64.68 131.821 61.9331C131.752 61.6069 131.273 61.7443 131.324 62.0704Z" fill="black"/>
<path d="M134.168 70.2253C137.474 69.6931 140.266 67.4097 141.516 64.3023C141.636 63.9932 141.139 63.8559 141.02 64.1649C139.838 67.1178 137.148 69.2295 134.031 69.7274C133.705 69.7789 133.842 70.2768 134.168 70.2253Z" fill="black"/>
<path d="M131.735 62.6713C132.438 62.7056 132.917 62.2249 133.448 61.8129C134.15 61.2635 134.819 60.6798 135.435 60.0618C136.583 58.9115 137.508 57.5895 138.107 56.0787C138.227 55.7697 137.731 55.6324 137.611 55.9414C137.08 57.2805 136.257 58.4651 135.264 59.4952C134.819 59.9759 134.339 60.4051 133.842 60.8343C133.294 61.2979 132.506 62.1906 131.735 62.1563C131.41 62.1391 131.41 62.6541 131.735 62.6713Z" fill="black"/>
<path d="M131.769 62.3968C133.225 61.4526 134.579 60.371 135.846 59.1864C136.086 58.9632 135.726 58.5855 135.487 58.8258C134.253 59.9933 132.934 61.0405 131.512 61.9676C131.221 62.1221 131.495 62.5685 131.769 62.3968Z" fill="black"/>
<path d="M121.697 37.5543C120.738 41.9322 120.19 46.3788 120.07 50.8597C120.07 51.1172 120.412 51.203 120.549 50.997C121.217 49.9326 121.886 48.851 122.554 47.7866C122.725 47.5119 122.28 47.2372 122.108 47.529C121.44 48.5935 120.772 49.6751 120.104 50.7395C120.258 50.791 120.43 50.8253 120.584 50.8768C120.704 46.4474 121.252 42.0352 122.194 37.7088C122.262 37.3655 121.766 37.2281 121.697 37.5543Z" fill="black"/>
<path d="M122.382 57.3149C121.971 56.5424 121.697 55.7183 121.629 54.8427C121.577 54.2247 121.714 51.7181 122.879 52.7139C123.496 53.2461 123.41 54.4135 123.427 55.1861C123.427 55.5466 123.427 55.9243 123.393 56.2849C123.376 56.5424 123.342 56.7999 123.29 57.0403C122.845 57.3493 122.502 57.3321 122.28 57.0059C122.057 56.7656 121.68 57.1261 121.92 57.3664C122.656 58.1218 123.616 58.1562 123.821 56.9716C123.975 56.1303 123.975 55.2376 123.907 54.3964C123.855 53.7268 123.855 52.7654 123.359 52.2503C122.622 51.4949 121.577 52.1988 121.286 53.0057C120.755 54.4479 121.269 56.2677 121.954 57.5725C122.091 57.8643 122.536 57.6068 122.382 57.3149Z" fill="black"/>
<path d="M125.928 41.8636C126.442 44.2843 129.611 44.4731 130.553 42.2413C130.673 41.9322 130.176 41.7949 130.056 42.1039C129.286 43.9237 126.819 43.5804 126.425 41.7262C126.356 41.4172 125.86 41.5374 125.928 41.8636Z" fill="black"/>
<path d="M124.918 35.9063C125.568 34.447 127.247 33.7431 128.789 34.0693C130.382 34.4126 131.598 35.6487 132.386 37.005C132.557 37.2969 133.003 37.0394 132.831 36.7475C131.924 35.1852 130.485 33.7946 128.635 33.5199C126.973 33.2795 125.192 34.0693 124.472 35.6316C124.335 35.9578 124.781 36.2153 124.918 35.9063Z" fill="black"/>
<path d="M114.879 36.4728C115.342 35.5114 116.147 34.4641 117.329 34.4813C118.46 34.4985 119.282 35.4942 119.847 36.3698C120.018 36.6445 120.464 36.387 120.292 36.1123C119.642 35.065 118.665 33.9834 117.329 33.9663C115.959 33.9491 114.999 35.0822 114.451 36.2153C114.297 36.5071 114.742 36.7647 114.879 36.4728Z" fill="black"/>
<path d="M117.911 44.2499C118.214 44.2499 118.46 43.12 118.46 41.7262C118.46 40.3324 118.214 39.2025 117.911 39.2025C117.609 39.2025 117.363 40.3324 117.363 41.7262C117.363 43.12 117.609 44.2499 117.911 44.2499Z" fill="black"/>
<path d="M119.487 71.41C119.436 72.0452 119.367 72.9208 119.333 73.9337C119.179 77.4017 119.316 80.0284 119.367 80.7323C119.505 83.0157 119.813 86.0029 120.532 89.4709C119.847 90.2606 118.819 91.428 117.5 92.8015C114.999 95.4282 113.715 96.7673 111.659 98.158C109.364 99.7031 107.771 100.184 106.914 100.407C105.835 100.664 104.807 100.905 103.557 100.63C101.518 100.167 100.302 98.6558 99.8566 98.0721C98.7261 96.63 98.4691 95.2222 98.0066 92.4753C97.664 90.4666 97.5955 88.9387 97.4927 85.9857C97.4413 84.578 97.3728 82.8611 97.4071 80.5606C97.4413 77.9682 97.5784 74.8951 97.9552 71.4615C98.1265 69.9164 98.3663 68.0107 98.7432 65.8475C98.452 65.4355 98.1437 65.0234 97.8182 64.5942C97.4756 64.1479 97.1501 63.7187 96.8075 63.2895C95.9339 64.0277 95.0774 64.7831 94.2038 65.5213C93.9811 65.6072 93.5871 65.7445 93.1075 65.693C92.1996 65.6072 91.6686 64.9719 91.4802 64.7659C90.6408 63.8045 90.7607 62.5856 90.795 62.3452C91.9769 61.0576 93.1589 59.7872 94.358 58.4996C94.3751 57.7613 94.4779 56.7999 94.7691 55.7355C94.9918 54.9457 95.2658 54.2934 95.5228 53.744C95.7455 53.2976 96.0538 52.7997 96.4478 52.3019C97.1501 51.3748 97.9038 50.7224 98.5205 50.276C98.0237 50.4992 97.9038 50.4992 97.8696 50.4649C97.7839 50.3275 98.589 49.3146 99.7196 49.2116C100.353 49.1429 100.85 49.3833 101.193 49.5378C101.724 49.7953 102.084 50.1215 102.306 50.3619C103.368 49.4519 104.43 48.542 105.492 47.6493C105.869 47.8725 106.246 48.13 106.623 48.3875C107.497 48.9884 108.285 49.5893 108.987 50.173C108.73 50.4992 108.404 50.8597 107.993 51.2203C107.308 51.8211 106.623 52.1817 106.092 52.422C106.417 52.525 107 52.7654 107.291 53.3319C107.582 53.8813 107.462 54.4822 107.291 55.2376C107.171 55.7526 107.017 56.1647 106.897 56.4394C106.966 57.1604 107 58.139 106.794 59.2378C106.469 61.0404 105.715 62.3796 105.201 63.1521C105.184 63.8217 105.167 64.8689 105.201 66.1565C105.338 71.4615 106.109 74.5689 106.606 78.4833C106.897 80.7151 107.188 84.0286 107.103 88.2004C107.497 87.9429 108.062 87.5309 108.696 86.9987C110.306 85.6424 111.334 84.2861 112.687 82.2946C114.023 80.3546 114.897 78.9125 116.079 76.9896C116.815 75.7364 117.997 73.8307 119.487 71.41Z" fill="white"/>
<path opacity="0.24" d="M103.916 55.7355C103.557 56.5252 103.197 57.3321 102.837 58.1562C101.792 60.6284 100.936 62.9976 100.233 65.2638C100.079 68.8348 99.9937 71.822 99.9252 73.9852C99.8395 77.2643 100.045 81.1787 100.422 89.0073C100.576 92.2349 100.713 94.1921 102.221 95.6171C103.796 97.0935 105.989 97.1279 107.222 97.1279C113.8 97.1107 118.717 91.4967 120.07 89.8657C118.237 92.9903 116.147 95.0334 114.725 96.2351C113.115 97.5914 111.042 99.2911 107.822 100.132C105.098 100.853 103.865 100.699 103.54 100.63C101.193 100.064 99.8909 98.1065 99.4284 97.4369C98.3149 95.7716 97.9552 94.0376 97.7497 90.3121C97.5441 86.4836 97.7668 85.4707 97.8353 80.2001C97.8867 75.1698 97.6983 73.7449 98.0751 70.2597C98.2978 68.2167 98.5719 66.5342 98.7946 65.4011C98.1265 64.6972 97.4585 63.9934 96.7904 63.3066C96.2251 63.8045 95.6427 64.2852 95.0603 64.7831C94.6834 65.1093 94.2895 65.4355 93.9126 65.7445C93.57 65.7788 93.0732 65.7617 92.5422 65.5385C91.1718 64.9548 90.3153 63.2551 90.7436 62.6714C91.0177 62.2765 91.7371 62.5856 92.7306 62.5856C94.4436 62.6027 95.5913 61.7272 97.8696 60.079C99.4798 58.8944 101.33 57.5725 103.916 55.7355Z" fill="#9B9797"/>
<path d="M119.265 71.2726C115.308 76.7492 112.379 83.0327 107.377 87.7025C107.137 87.9257 107.497 88.2862 107.736 88.063C112.773 83.3589 115.719 77.0411 119.71 71.5301C119.916 71.2726 119.47 71.015 119.265 71.2726Z" fill="black"/>
<path d="M104.533 101.025C111.316 100.579 116.181 94.8788 120.258 90.0374C120.464 89.7799 120.104 89.4193 119.899 89.6769C115.942 94.4153 111.145 100.081 104.55 100.527C104.208 100.527 104.208 101.042 104.533 101.025Z" fill="black"/>
<path d="M101.313 52.6624C101.347 54.0186 102.238 55.1861 103.54 55.5638C103.865 55.6496 104.002 55.1517 103.677 55.0659C102.597 54.7569 101.861 53.7783 101.827 52.6624C101.809 52.3362 101.296 52.3362 101.313 52.6624Z" fill="black"/>
<path d="M101.844 52.5079C102.015 51.0143 104.67 52.0959 105.39 52.4736C106.092 52.8341 106.794 53.1946 106.948 54.053C107.068 54.7054 106.863 55.3921 106.691 56.0274C106.606 56.3536 107.103 56.4909 107.188 56.1647C107.428 55.3063 107.685 54.3277 107.325 53.4865C106.983 52.6281 106.041 52.2332 105.27 51.8555C104.482 51.4778 103.625 51.2031 102.734 51.3061C102.375 51.3576 101.912 51.4435 101.621 51.6838C101.313 51.9242 101.381 52.0959 101.33 52.5251C101.296 52.8341 101.809 52.8341 101.844 52.5079Z" fill="black"/>
<path d="M106.52 55.9243C106.469 57.229 106.76 58.4995 106.452 59.8043C106.16 61.006 105.578 62.122 104.996 63.2036C104.841 63.4954 105.287 63.7529 105.441 63.4611C106.041 62.328 106.64 61.1777 106.948 59.9416C107.274 58.6025 106.983 57.2806 107.034 55.9243C107.051 55.5809 106.537 55.5809 106.52 55.9243Z" fill="black"/>
<path d="M104.996 63.2207C104.602 72.2683 107.188 81.1271 106.777 90.1747C106.76 90.5009 107.274 90.5009 107.291 90.1747C107.702 81.1271 105.115 72.2683 105.509 63.2207C105.527 62.8945 105.013 62.8945 104.996 63.2207Z" fill="black"/>
<path d="M96.5848 63.4095C97.0987 64.1306 97.6469 64.8173 98.2636 65.4525C98.4863 65.6929 98.846 65.3323 98.6233 65.092C98.0409 64.4739 97.5099 63.8387 97.0302 63.152C96.8247 62.8773 96.3793 63.1348 96.5848 63.4095Z" fill="black"/>
<path d="M98.5548 65.3152C97.5784 70.8948 97.0988 76.5603 97.1159 82.2258C97.133 85.0414 97.2701 87.8741 97.5441 90.6725C97.7668 93.0589 98.0409 95.5655 99.2914 97.66C100.422 99.5656 102.409 101.008 104.67 100.956C104.996 100.939 104.996 100.424 104.67 100.441C101.501 100.527 99.4627 97.6943 98.7261 94.9131C97.9039 91.8571 97.8353 88.5265 97.7154 85.3847C97.4585 78.7235 97.921 72.0279 99.0687 65.4697C99.103 65.1264 98.6062 64.989 98.5548 65.3152Z" fill="black"/>
<path d="M95.3173 57.6067C93.7071 58.963 92.1483 60.3879 90.6751 61.8816C90.4353 62.1219 90.8121 62.4824 91.0348 62.2421C92.5251 60.7485 94.0668 59.3235 95.677 57.9672C95.9339 57.7612 95.5742 57.4007 95.3173 57.6067Z" fill="black"/>
<path d="M90.5209 62.3452C90.264 64.3367 91.7714 66.0192 93.7756 66.002C94.101 66.002 94.101 65.487 93.7756 65.487C92.0455 65.5042 90.8121 64.0449 91.0348 62.3452C91.0862 62.019 90.5723 62.019 90.5209 62.3452Z" fill="black"/>
<path d="M91.0006 62.225C92.7992 62.2765 94.0497 63.8903 93.6728 65.6415C93.6043 65.9677 94.1011 66.105 94.1696 65.7788C94.6321 63.6671 93.1589 61.7786 91.0006 61.71C90.6751 61.71 90.6751 62.225 91.0006 62.225Z" fill="black"/>
<path d="M94.3751 65.693C96.3279 63.9075 98.315 62.1392 100.216 60.3022C101.09 59.4609 101.929 58.6025 102.717 57.6755C103.146 57.1776 104.225 56.199 104.242 55.5123C104.242 55.4264 104.191 55.3234 104.122 55.2891C104.088 55.2719 104.053 55.2548 104.036 55.2548C103.934 55.2032 103.797 55.2033 103.728 55.2891C103.711 55.3063 103.694 55.3234 103.677 55.3578C103.471 55.6153 103.831 55.9758 104.036 55.7183C104.053 55.7011 104.071 55.684 104.088 55.6496C103.985 55.6668 103.882 55.684 103.779 55.684C103.745 55.5294 103.694 55.5294 103.625 55.7011C103.54 55.8213 103.454 55.9415 103.351 56.0617C103.146 56.3192 102.957 56.5767 102.734 56.8342C102.392 57.2634 102.015 57.6755 101.655 58.0875C100.902 58.9116 100.114 59.6841 99.3085 60.4395C97.5613 62.0877 95.7798 63.6843 94.0154 65.3153C93.7585 65.5556 94.1353 65.9162 94.3751 65.693Z" fill="black"/>
<path d="M94.5978 58.5681C94.7177 57.7441 94.8376 56.92 94.9576 56.0959C95.0432 55.4779 95.1117 54.7912 95.4543 54.2418C96.2423 52.9713 97.3557 53.8812 97.9553 54.7397C98.2122 55.1002 98.452 55.4951 98.709 55.8556C98.846 56.0616 99.5141 56.7998 99.4284 57.0574C99.5141 56.9887 99.5997 56.9372 99.6682 56.8685C99.634 56.8685 99.6169 56.8685 99.5826 56.8685C99.2571 56.8513 99.2571 57.3664 99.5826 57.3835C99.6169 57.3835 99.634 57.3835 99.6682 57.3835C99.7882 57.3835 99.8909 57.2977 99.9081 57.1947C100.028 56.7655 99.7368 56.508 99.5141 56.1646C99.0858 55.5294 98.6747 54.877 98.2293 54.2589C97.7668 53.6237 97.1673 53.0057 96.3108 53.0915C95.4886 53.1774 94.9918 53.8126 94.7349 54.5508C94.3066 55.7697 94.2724 57.1604 94.0839 58.4308C94.0497 58.757 94.5464 58.8943 94.5978 58.5681Z" fill="black"/>
<path d="M95.4029 56.6282C95.8654 57.5381 96.6363 58.4652 97.7326 58.5339C98.6405 58.6026 99.497 58.0875 99.7368 57.1948C99.8224 56.8686 99.3256 56.7312 99.24 57.0574C99.0173 57.8815 98.1094 58.1905 97.3557 57.933C96.6363 57.6755 96.1738 57.0403 95.8483 56.3879C95.6941 56.0788 95.2488 56.3364 95.4029 56.6282Z" fill="black"/>
<path d="M96.0367 53.2804C96.1224 52.4392 97.0816 52.216 97.7326 52.4392C98.4178 52.6624 98.9488 53.2804 99.4284 53.7783C99.8053 54.1731 100.542 54.7225 100.645 55.2719C100.782 56.0101 99.8567 56.508 99.24 56.6969C98.9316 56.7827 99.0516 57.2806 99.377 57.1947C100.131 56.9716 101.227 56.302 101.347 55.4093C101.398 55.0487 101.176 54.8599 100.936 54.6024C100.456 54.0873 99.9937 53.5894 99.4969 53.0916C98.8289 52.4048 97.9724 51.6666 96.9446 51.8383C96.1737 51.9585 95.6085 52.4735 95.5228 53.2632C95.4886 53.6066 96.0025 53.6066 96.0367 53.2804Z" fill="black"/>
<path d="M96.9617 52.01C97.2015 51.7353 97.3214 51.3747 97.5441 51.1C98.0923 50.4133 98.9488 51.0485 99.5141 51.4606C100.61 52.2331 101.775 53.6409 100.782 54.98C100.593 55.2547 101.039 55.5123 101.227 55.2376C102.289 53.7954 101.244 52.1301 100.028 51.2031C99.4627 50.7738 98.6062 50.0013 97.8353 50.2245C97.1501 50.4133 97.0302 51.2031 96.602 51.6666C96.3793 51.8898 96.739 52.2503 96.9617 52.01Z" fill="black"/>
<path d="M98.6918 50.4476C99.2914 49.7094 100.079 48.9368 101.004 49.7094C101.621 50.2073 102.015 50.9112 102.238 51.6494C102.34 51.9584 102.82 51.8382 102.734 51.512C102.443 50.5163 101.775 49.366 100.782 48.954C99.771 48.5419 98.9316 49.3489 98.3321 50.0871C98.1265 50.3274 98.4863 50.7051 98.6918 50.4476Z" fill="black"/>
<path d="M102.478 50.5164C103.54 49.6065 104.602 48.6966 105.664 47.8038C105.921 47.5806 105.544 47.2201 105.304 47.4433C104.242 48.3532 103.18 49.2631 102.118 50.1558C101.861 50.379 102.238 50.7396 102.478 50.5164Z" fill="black"/>
<path d="M106.263 52.7139C107.274 51.9756 108.25 51.1859 109.158 50.3275C109.398 50.1043 109.038 49.7438 108.798 49.967C107.908 50.791 106.983 51.5636 106.006 52.2675C105.732 52.4563 105.989 52.9027 106.263 52.7139Z" fill="black"/>
<path d="M113.954 51.4262C119.669 51.4262 124.301 46.7836 124.301 41.0567C124.301 35.3297 119.669 30.6871 113.954 30.6871C108.24 30.6871 103.608 35.3297 103.608 41.0567C103.608 46.7836 108.24 51.4262 113.954 51.4262Z" stroke="black" stroke-width="3" stroke-miterlimit="10"/>
<path d="M107.685 42.3271C111.488 39.8893 115.376 37.5887 119.35 35.4256C119.642 35.271 119.385 34.8247 119.093 34.9792C115.119 37.1252 111.231 39.4257 107.428 41.8808C107.154 42.0696 107.411 42.516 107.685 42.3271Z" fill="black"/>
<path d="M108.113 46.8252C111.248 44.5247 114.417 42.31 117.655 40.1468C117.929 39.9579 117.672 39.5116 117.398 39.7004C114.177 41.8636 110.991 44.0955 107.856 46.3788C107.582 46.5677 107.839 47.014 108.113 46.8252Z" fill="black"/>
</g>
<defs>
<clipPath id="clip0_202244_545">
<rect width="208" height="189" fill="white" transform="translate(0 0.5)"/>
</clipPath>
</defs>
</svg>
